<svg data-logo="logo" xmlns="http://www.w3.org/2000/svg" viewBox="0 0 254 43">
        <g id="logogram" transform="translate(0, 1) rotate(0)"><path fill-rule="evenodd" clip-rule="evenodd" d="M29.4554 2.85574V0.429993H35V22.7815C35 32.4465 27.165 40.2815 17.5 40.2815C8.24271 40.2815 0.664262 33.0935 0.0413736 23.9944H0V0.429993H5.54455V2.85574H14.901V0.429993H20.4455V2.85574H29.4554ZM29.4554 22.7815V19.3796C28.8318 20.0226 28.1633 20.6332 27.4539 21.2083C25.1121 23.107 22.3612 24.5903 19.369 25.5951C16.3764 26.6001 13.1833 27.1132 9.96797 27.1132H6.35343C8.08848 31.5747 12.425 34.7369 17.5 34.7369C24.1028 34.7369 29.4554 29.3843 29.4554 22.7815ZM15.4269 18.6058C14.3706 19.7255 13.18 20.6964 11.8852 21.494C13.8545 21.3403 15.7827 20.9507 17.6038 20.3391C20.013 19.53 22.1698 18.3545 23.9621 16.9015C25.7535 15.449 27.136 13.7561 28.0645 11.9386C28.6507 10.7912 29.0518 9.60308 29.2674 8.40029H20.2671C20.0641 9.87448 19.6891 11.3213 19.1475 12.7073C18.2893 14.9035 17.0275 16.9091 15.4269 18.6058ZM5.54455 18.1784V8.40029H14.6483C14.4948 9.18283 14.2724 9.94933 13.9832 10.6893C13.3786 12.2366 12.4962 13.6325 11.3938 14.801C10.2918 15.9692 8.99228 16.8866 7.57404 17.5093C6.91535 17.7985 6.23601 18.022 5.54455 18.1784Z" fill="OKLCH(49.6% 0.265 301.924)"></path></g>
        <g id="logotype" transform="translate(41, 1.5)"><path fill="#000000" d="M13.52 33L8.31 33L8.31 7.54L13.52 7.54L13.52 17.82L24.61 17.82L24.61 7.54L29.84 7.54L29.84 33L24.61 33L24.61 22.15L13.52 22.15L13.52 33ZM40.69 33.38L40.69 33.38Q37.77 33.38 35.65 32.18Q33.53 30.98 32.39 28.78Q31.26 26.57 31.26 23.55L31.26 23.55Q31.26 20.59 32.38 18.37Q33.51 16.15 35.58 14.90Q37.65 13.65 40.43 13.65L40.43 13.65Q42.31 13.65 43.94 14.25Q45.56 14.85 46.79 16.06Q48.02 17.26 48.71 19.07Q49.41 20.88 49.41 23.34L49.41 23.34L49.41 24.78L33.36 24.78L33.36 21.57L46.89 21.57L44.50 22.42Q44.50 20.93 44.05 19.83Q43.60 18.73 42.70 18.12Q41.80 17.52 40.47 17.52L40.47 17.52Q39.15 17.52 38.22 18.13Q37.29 18.75 36.81 19.80Q36.33 20.85 36.33 22.20L36.33 22.20L36.33 24.47Q36.33 26.13 36.89 27.26Q37.44 28.39 38.44 28.95Q39.44 29.51 40.78 29.51L40.78 29.51Q41.68 29.51 42.42 29.26Q43.15 29.00 43.67 28.50Q44.19 27.99 44.47 27.26L44.47 27.26L49.12 28.13Q48.65 29.70 47.51 30.89Q46.36 32.08 44.65 32.73Q42.93 33.38 40.69 33.38ZM55.76 33L50.63 33L50.63 13.89L55.59 13.89L55.59 17.23L55.80 17.23Q56.33 15.45 57.56 14.54Q58.80 13.64 60.41 13.64L60.41 13.64Q60.80 13.64 61.26 13.68Q61.71 13.72 62.07 13.81L62.07 13.81L62.07 18.39Q61.73 18.27 61.08 18.20Q60.43 18.13 59.85 18.13L59.85 18.13Q58.68 18.13 57.74 18.64Q56.80 19.14 56.28 20.04Q55.76 20.93 55.76 22.13L55.76 22.13L55.76 33ZM67.74 33L62.61 33L62.61 13.89L67.36 13.89L67.62 18.64L67.24 18.64Q67.69 16.88 68.55 15.77Q69.41 14.66 70.58 14.13Q71.74 13.60 73.02 13.60L73.02 13.60Q75.09 13.60 76.35 14.91Q77.62 16.22 78.22 18.95L78.22 18.95L77.62 18.95Q78.04 17.12 79.01 15.94Q79.98 14.75 81.30 14.18Q82.62 13.60 84.08 13.60L84.08 13.60Q85.84 13.60 87.21 14.37Q88.59 15.14 89.38 16.59Q90.18 18.03 90.18 20.11L90.18 20.11L90.18 33L85.05 33L85.05 21.09Q85.05 19.46 84.17 18.68Q83.29 17.89 82.01 17.89L82.01 17.89Q81.05 17.89 80.34 18.31Q79.63 18.73 79.25 19.48Q78.86 20.23 78.86 21.24L78.86 21.24L78.86 33L73.91 33L73.91 20.95Q73.91 19.55 73.08 18.72Q72.25 17.89 70.94 17.89L70.94 17.89Q70.03 17.89 69.30 18.30Q68.58 18.71 68.16 19.51Q67.74 20.30 67.74 21.45L67.74 21.45L67.74 33ZM97.61 33.38L97.61 33.38Q95.80 33.38 94.35 32.74Q92.91 32.09 92.08 30.82Q91.25 29.55 91.25 27.65L91.25 27.65Q91.25 26.06 91.84 24.98Q92.43 23.91 93.45 23.26Q94.47 22.61 95.76 22.27Q97.05 21.93 98.46 21.79L98.46 21.79Q100.12 21.62 101.14 21.47Q102.16 21.33 102.63 21.01Q103.10 20.70 103.10 20.08L103.10 20.08L103.10 19.99Q103.10 19.17 102.75 18.61Q102.41 18.05 101.75 17.75Q101.08 17.45 100.11 17.45L100.11 17.45Q99.11 17.45 98.38 17.75Q97.64 18.05 97.18 18.54Q96.72 19.04 96.50 19.65L96.50 19.65L91.80 18.87Q92.30 17.21 93.44 16.05Q94.59 14.88 96.29 14.27Q97.99 13.65 100.11 13.65L100.11 13.65Q101.66 13.65 103.11 14.02Q104.57 14.39 105.72 15.16Q106.87 15.93 107.55 17.16Q108.22 18.39 108.22 20.13L108.22 20.13L108.22 33L103.37 33L103.37 30.35L103.20 30.35Q102.74 31.24 101.97 31.91Q101.20 32.59 100.11 32.98Q99.03 33.38 97.61 33.38ZM99.06 29.77L99.06 29.77Q100.28 29.77 101.19 29.29Q102.11 28.81 102.62 27.99Q103.13 27.17 103.13 26.16L103.13 26.16L103.13 24.10Q102.91 24.27 102.45 24.40Q101.99 24.54 101.42 24.64Q100.86 24.75 100.31 24.83Q99.76 24.92 99.34 24.97L99.34 24.97Q98.40 25.10 97.68 25.41Q96.96 25.72 96.57 26.22Q96.17 26.73 96.17 27.51L96.17 27.51Q96.17 28.25 96.55 28.75Q96.93 29.26 97.57 29.51Q98.21 29.77 99.06 29.77ZM115.45 21.94L115.45 21.94L115.45 33L110.32 33L110.32 13.89L115.16 13.89L115.25 18.66L114.94 18.66Q115.69 16.27 117.22 14.96Q118.75 13.65 121.18 13.65L121.18 13.65Q123.16 13.65 124.63 14.52Q126.10 15.38 126.92 17.00Q127.74 18.61 127.74 20.85L127.74 20.85L127.74 33L122.61 33L122.61 21.74Q122.61 19.96 121.70 18.95Q120.78 17.94 119.16 17.94L119.16 17.94Q118.08 17.94 117.24 18.41Q116.39 18.88 115.92 19.77Q115.45 20.66 115.45 21.94ZM136.83 33.32L136.83 33.32Q134.62 33.32 132.85 32.19Q131.09 31.05 130.06 28.86Q129.03 26.66 129.03 23.48L129.03 23.48Q129.03 20.22 130.09 18.03Q131.15 15.84 132.91 14.75Q134.67 13.65 136.79 13.65L136.79 13.65Q138.42 13.65 139.49 14.20Q140.57 14.75 141.24 15.55Q141.90 16.35 142.23 17.11L142.23 17.11L142.40 17.11L142.40 7.54L147.53 7.54L147.53 33L142.48 33L142.48 29.94L142.23 29.94Q141.89 30.71 141.21 31.49Q140.54 32.27 139.46 32.79Q138.38 33.32 136.83 33.32ZM138.40 29.21L138.40 29.21Q139.70 29.21 140.62 28.49Q141.54 27.77 142.02 26.48Q142.50 25.19 142.50 23.46L142.50 23.46Q142.50 21.72 142.03 20.45Q141.56 19.17 140.64 18.47Q139.72 17.76 138.40 17.76L138.40 17.76Q137.05 17.76 136.14 18.49Q135.22 19.23 134.76 20.51Q134.30 21.79 134.30 23.46L134.30 23.46Q134.30 25.14 134.77 26.44Q135.24 27.74 136.15 28.47Q137.07 29.21 138.40 29.21ZM154.03 33L148.28 33L156.97 7.54L163.81 7.54L172.73 33L166.94 33L162.85 20.71Q162.12 18.34 161.36 15.51Q160.60 12.68 159.76 9.33L159.76 9.33L160.89 9.33Q160.08 12.70 159.38 15.54Q158.67 18.39 157.97 20.71L157.97 20.71L154.03 33ZM167.30 27.09L153.71 27.09L153.71 23.00L167.30 23.00L167.30 27.09ZM178.61 40.14L173.48 40.14L173.48 13.89L178.52 13.89L178.52 17.11L178.76 17.11Q179.12 16.35 179.78 15.55Q180.44 14.75 181.51 14.20Q182.59 13.65 184.21 13.65L184.21 13.65Q186.33 13.65 188.09 14.75Q189.85 15.84 190.90 18.03Q191.96 20.22 191.96 23.48L191.96 23.48Q191.96 26.66 190.93 28.86Q189.90 31.05 188.14 32.19Q186.38 33.32 184.18 33.32L184.18 33.32Q182.62 33.32 181.55 32.79Q180.47 32.27 179.80 31.49Q179.12 30.71 178.76 29.94L178.76 29.94L178.61 29.94L178.61 40.14ZM182.61 29.21L182.61 29.21Q183.94 29.21 184.85 28.47Q185.77 27.74 186.24 26.44Q186.71 25.14 186.71 23.46L186.71 23.46Q186.71 21.79 186.24 20.51Q185.77 19.23 184.86 18.49Q183.96 17.76 182.61 17.76L182.61 17.76Q181.29 17.76 180.37 18.47Q179.45 19.17 178.97 20.45Q178.49 21.72 178.49 23.46L178.49 23.46Q178.49 25.19 178.98 26.48Q179.46 27.77 180.39 28.49Q181.31 29.21 182.61 29.21ZM198.40 40.14L193.27 40.14L193.27 13.89L198.31 13.89L198.31 17.11L198.55 17.11Q198.91 16.35 199.57 15.55Q200.22 14.75 201.30 14.20Q202.38 13.65 204.00 13.65L204.00 13.65Q206.12 13.65 207.88 14.75Q209.64 15.84 210.69 18.03Q211.74 20.22 211.74 23.48L211.74 23.48Q211.74 26.66 210.72 28.86Q209.69 31.05 207.93 32.19Q206.17 33.32 203.97 33.32L203.97 33.32Q202.41 33.32 201.34 32.79Q200.26 32.27 199.58 31.49Q198.91 30.71 198.55 29.94L198.55 29.94L198.40 29.94L198.40 40.14ZM202.40 29.21L202.40 29.21Q203.73 29.21 204.64 28.47Q205.56 27.74 206.03 26.44Q206.50 25.14 206.50 23.46L206.50 23.46Q206.50 21.79 206.03 20.51Q205.56 19.23 204.65 18.49Q203.75 17.76 202.40 17.76L202.40 17.76Q201.08 17.76 200.16 18.47Q199.23 19.17 198.75 20.45Q198.28 21.72 198.28 23.46L198.28 23.46Q198.28 25.19 198.76 26.48Q199.25 27.77 200.17 28.49Q201.10 29.21 202.40 29.21Z"></path></g>
        
      </svg>